<?xml version="1.0" encoding="utf-8"?>
<!-- Generator: Adobe Illustrator 17.0.0, SVG Export Plug-In . SVG Version: 6.00 Build 0)  -->
<!DOCTYPE svg PUBLIC "-//W3C//DTD SVG 1.1//EN" "http://www.w3.org/Graphics/SVG/1.1/DTD/svg11.dtd">
<svg version="1.1" id="Layer_1" xmlns="http://www.w3.org/2000/svg" xmlns:xlink="http://www.w3.org/1999/xlink" x="0px" y="0px"
	 width="325.68px" height="112.574px" viewBox="0 0 325.68 112.574" enable-background="new 0 0 325.68 112.574"
	 xml:space="preserve">
<path d="M95.701,60.164c0,27.658,9.385,30.316,24.336,30.316c14.95-0.083,24.502-3.488,24.502-30.316
	c0-28.489-10.133-31.229-24.502-31.229C105.916,28.934,95.701,31.675,95.701,60.164 M107.329,60.164
	c0-19.352,3.738-20.515,12.708-20.515c9.22,0,12.874,1.578,12.874,20.515c0,16.363-3.073,19.602-12.874,19.602
	C109.654,79.766,107.329,76.775,107.329,60.164z M116.465,92.889c0.665,10.632,11.711,13.538,20.1,11.711v-9.385
	c-4.9,1.329-10.881,2.076-13.538-2.326H116.465z"/>
<path d="M150.438,75.364c0,8.472,2.907,15.532,13.123,15.532c6.727,0,9.635-2.824,14.037-5.399l2.243,4.651h9.386V46.044h-11.628
	v31.645c-3.405,2.658-5.98,3.821-10.631,3.821c-2.907,0-4.901-1.495-4.901-5.897V46.044h-11.628V75.364z"/>
<path d="M195.457,78.935c0,5.731,3.987,11.462,12.459,11.711c6.728,0.166,12.957-4.402,13.455-5.316l2.409,4.818h9.22V59.417
	c0-10.964-6.479-14.203-15.947-14.203c-8.223,0-14.286,0.665-20.1,2.907v7.226c3.571-0.249,14.618-0.914,18.522-0.914
	c3.654,0,5.897,0.665,5.897,5.399c0.083,0.083,0,2.824,0,2.824c0,0.083-12.957,0-12.957,0c-9.469,0-12.957,5.648-12.957,12.127
	V78.935z M207.085,77.274v-2.16c0-1.91,0.499-4.236,3.572-4.485l10.714-0.831v8.057c0,0-5.316,3.488-10.133,3.488
	C209.078,81.344,207.085,80.929,207.085,77.274z"/>
<path d="M236.573,46.044l8.638,32.891c2.159,8.14,6.977,11.213,13.123,11.213l-6.229,22.426h8.306l6.063-8.472l15.283-58.058H269.63
	l-8.804,34.137c-0.664-0.083-3.489,0.249-4.402-3.239l-7.641-30.898H236.573z"/>
<path d="M283.668,89.321c0,0.621,0.443,1.021,1.065,1.021h3.815c0.621,0,1.109-0.222,1.109-1.021v-3.992
	c0-0.71-0.311-1.109-1.109-1.109h-3.815c-0.71,0-1.065,0.444-1.065,1.109V89.321z"/>
<path d="M294.138,63.281c0,0.621,0.444,1.021,1.065,1.021h4.658c0.621,0,0.976-0.355,0.976-1.021v-3.904
	c0-0.621-0.311-1.153-0.976-1.153h-4.658c-0.71,0-1.065,0.444-1.065,1.153V63.281z M294.36,90.342h6.211V66.785h-6.211V90.342z"/>
<path d="M304.208,78.896c0,8.429,2.617,11.667,10.736,11.667c8.251,0,10.735-2.928,10.735-11.667
	c0-9.361-2.617-12.333-10.735-12.333C307.003,66.563,304.208,69.27,304.208,78.896 M310.419,78.896c0-6.61,0.843-7.364,4.525-7.364
	c3.726,0,4.525,0.754,4.525,7.364c0,6.21-1.02,6.654-4.525,6.654C311.661,85.55,310.419,84.974,310.419,78.896z"/>
<path fill-rule="evenodd" clip-rule="evenodd" d="M38.505,0c13.241,0,24.037,13.64,24.588,30.737h-8.876
	c0-11.805-7.035-21.374-15.712-21.374c-8.678,0-15.713,9.569-15.713,21.374h-8.876C14.467,13.64,25.264,0,38.505,0"/>
<path fill-rule="evenodd" clip-rule="evenodd" d="M38.504,57.156c2.483,0,4.495,2.013,4.495,4.495c0,0.946-0.292,1.823-0.791,2.547
	l2.294,12.511H32.507l2.294-12.511c-0.499-0.724-0.791-1.601-0.791-2.547C34.009,59.168,36.022,57.156,38.504,57.156"/>
<path fill-rule="evenodd" clip-rule="evenodd" d="M2.394,34.801h4.724c1.317,0,2.394,1.077,2.394,2.394v59.474
	c0,1.317-1.077,2.394-2.394,2.394H2.394C1.077,99.063,0,97.986,0,96.669V37.195C0,35.878,1.077,34.801,2.394,34.801"/>
<path fill-rule="evenodd" clip-rule="evenodd" d="M16.314,34.801h4.724c1.316,0,2.394,1.077,2.394,2.394v59.474
	c0,1.317-1.077,2.394-2.394,2.394h-4.724c-1.316,0-2.394-1.077-2.394-2.394V37.195C13.92,35.878,14.997,34.801,16.314,34.801"/>
<path fill-rule="evenodd" clip-rule="evenodd" d="M29.183,34.801h4.724c1.317,0,2.394,1.077,2.394,2.394V51.96
	c0,1.317-1.077,2.394-2.394,2.394h-4.724c-1.317,0-2.394-1.077-2.394-2.394V37.195C26.789,35.878,27.866,34.801,29.183,34.801"/>
<path fill-rule="evenodd" clip-rule="evenodd" d="M43.103,34.801h4.724c1.316,0,2.393,1.077,2.393,2.394V51.96
	c0,1.317-1.077,2.394-2.393,2.394h-4.724c-1.316,0-2.394-1.077-2.394-2.394V37.195C40.709,35.878,41.786,34.801,43.103,34.801"/>
<path fill-rule="evenodd" clip-rule="evenodd" d="M55.971,34.801h4.724c1.317,0,2.394,1.077,2.394,2.394v59.474
	c0,1.317-1.077,2.394-2.394,2.394h-4.724c-1.316,0-2.393-1.077-2.393-2.394V37.195C53.578,35.878,54.655,34.801,55.971,34.801"/>
<path fill-rule="evenodd" clip-rule="evenodd" d="M69.891,34.801h4.724c1.317,0,2.394,1.077,2.394,2.394v59.474
	c0,1.317-1.077,2.394-2.394,2.394h-4.724c-1.317,0-2.394-1.077-2.394-2.394V37.195C67.498,35.878,68.575,34.801,69.891,34.801"/>
<path fill-rule="evenodd" clip-rule="evenodd" d="M29.183,79.51h4.724c1.317,0,2.394,1.077,2.394,2.394V96.67
	c0,1.317-1.077,2.394-2.394,2.394h-4.724c-1.317,0-2.394-1.077-2.394-2.394V81.904C26.789,80.588,27.866,79.51,29.183,79.51"/>
<path fill-rule="evenodd" clip-rule="evenodd" d="M43.103,79.51h4.724c1.316,0,2.393,1.077,2.393,2.394V96.67
	c0,1.317-1.077,2.394-2.393,2.394h-4.724c-1.316,0-2.394-1.077-2.394-2.394V81.904C40.709,80.588,41.786,79.51,43.103,79.51"/>
</svg>
